<svg width="70" height="71" viewBox="0 0 70 71" fill="none" xmlns="http://www.w3.org/2000/svg">
<path d="M17.5 32.4641H29.1667" stroke="#1A181B" stroke-width="5" stroke-linecap="round" stroke-linejoin="round"/>
<path d="M23.3333 26.6308V38.2975" stroke="#1A181B" stroke-width="5" stroke-linecap="round" stroke-linejoin="round"/>
<path d="M43.75 35.3808H43.7792" stroke="#1A181B" stroke-width="5" stroke-linecap="round" stroke-linejoin="round"/>
<path d="M52.5 29.5475H52.5292" stroke="#1A181B" stroke-width="5" stroke-linecap="round" stroke-linejoin="round"/>
<path d="M50.5166 14.9641H19.4833C16.5966 14.9648 13.8127 16.0357 11.6697 17.9697C9.52663 19.9037 8.1767 22.5635 7.88081 25.435C7.86331 25.5866 7.85165 25.7296 7.83123 25.8783C7.59498 27.8441 5.83331 42.5441 5.83331 47.0475C5.83331 49.3681 6.75519 51.5937 8.39613 53.2347C10.0371 54.8756 12.2627 55.7975 14.5833 55.7975C17.5 55.7975 18.9583 54.3391 20.4166 52.8808L24.5408 48.7566C25.6345 47.6626 27.118 47.0478 28.665 47.0475H41.335C42.8819 47.0478 44.3654 47.6626 45.4591 48.7566L49.5833 52.8808C51.0416 54.3391 52.5 55.7975 55.4166 55.7975C57.7373 55.7975 59.9629 54.8756 61.6038 53.2347C63.2448 51.5937 64.1666 49.3681 64.1666 47.0475C64.1666 42.5412 62.405 27.8441 62.1687 25.8783C62.1483 25.7325 62.1366 25.5866 62.1191 25.4379C61.8239 22.5659 60.4743 19.9053 58.3312 17.9707C56.1881 16.0361 53.4038 14.9649 50.5166 14.9641Z" stroke="#1A181B" stroke-width="5" stroke-linecap="round" stroke-linejoin="round"/>
</svg>
