<svg width="446" height="314" viewBox="0 0 446 314" fill="none" xmlns="http://www.w3.org/2000/svg">
<rect x="0.491455" width="445.017" height="314" rx="32" fill="#242226"/>
<path d="M177.096 185.75L133.492 110.425C131.611 107.175 130.727 103.444 130.949 99.6962C131.17 95.9481 132.488 92.3476 134.738 89.3417L150.167 68.8333C151.952 66.4529 154.267 64.5208 156.928 63.1901C159.59 61.8594 162.525 61.1667 165.5 61.1667H280.5C283.476 61.1667 286.41 61.8594 289.072 63.1901C291.733 64.5208 294.048 66.4529 295.833 68.8333L311.167 89.3417C313.431 92.3379 314.766 95.9335 315.005 99.6818C315.243 103.43 314.375 107.166 312.508 110.425L268.904 185.75" stroke="#23DACA" stroke-width="10" stroke-linecap="round" stroke-linejoin="round"/>
<path d="M213.417 157L157.067 63.0833" stroke="#23DACA" stroke-width="10" stroke-linecap="round" stroke-linejoin="round"/>
<path d="M232.583 157L288.933 63.0833" stroke="#23DACA" stroke-width="10" stroke-linecap="round" stroke-linejoin="round"/>
<path d="M184.667 109.083H261.333" stroke="#23DACA" stroke-width="10" stroke-linecap="round" stroke-linejoin="round"/>
<path d="M223 252.833C249.464 252.833 270.917 231.38 270.917 204.917C270.917 178.453 249.464 157 223 157C196.536 157 175.083 178.453 175.083 204.917C175.083 231.38 196.536 252.833 223 252.833Z" stroke="#23DACA" stroke-width="10" stroke-linecap="round" stroke-linejoin="round"/>
<path d="M223 214.5V195.333H218.208" stroke="#23DACA" stroke-width="10" stroke-linecap="round" stroke-linejoin="round"/>
</svg>
