<svg width="184" height="184" viewBox="0 0 184 184" fill="none" xmlns="http://www.w3.org/2000/svg">
<g clip-path="url(#clip0_4_161)">
<g filter="url(#filter0_d_4_161)">
<path d="M25.1335 76.3047C27.2134 76.3047 28.8995 74.6185 28.8995 72.5386V62.4919C28.8995 59.1782 31.5858 56.492 34.8995 56.492C38.2132 56.492 40.8994 59.1782 40.8994 62.4919V70.5469C40.8994 73.7266 43.4771 76.3043 46.6568 76.3043C49.8365 76.3043 52.4141 73.7266 52.4141 70.5469V56.3202C52.4141 53.0064 55.1005 50.32 58.4143 50.32C61.7281 50.32 64.4144 53.0064 64.4144 56.3202V70.5476C64.4144 73.7274 66.9921 76.305 70.1718 76.305C73.3515 76.305 75.9291 73.7273 75.9291 70.5476V50.3842C75.9291 47.0705 78.6154 44.3842 81.9291 44.3842C85.2428 44.3842 87.929 47.0705 87.929 50.3842V70.5476C87.929 73.7274 90.5067 76.305 93.6864 76.305C96.8661 76.305 99.4438 73.7273 99.4438 70.5476V56.32C99.4438 53.0063 102.13 50.32 105.444 50.32C108.757 50.32 111.444 53.0063 111.444 56.32V72.5391C111.444 74.619 113.13 76.305 115.21 76.305C117.289 76.305 118.975 77.9911 118.975 80.0709V90.8056C118.975 93.6904 122.186 95.4157 124.591 93.824C126.258 92.7212 128.504 93.1785 129.607 94.8454L130.92 96.831C132.749 99.5946 131.991 103.317 129.227 105.146L124.308 108.4C120.978 110.603 118.975 114.329 118.975 118.322V148.336C118.975 150.416 117.289 152.102 115.21 152.102C113.13 152.102 111.444 153.788 111.444 155.868V168.051C111.444 176.859 104.303 184 95.4948 184H44.8484C36.0399 184 28.8992 176.859 28.8992 168.051V155.867C28.8992 153.788 27.2131 152.102 25.1333 152.102C23.0534 152.102 21.3674 150.415 21.3674 148.336V80.0707C21.3674 77.9908 23.0535 76.3047 25.1335 76.3047ZM40.8998 162.051C40.8998 167.546 45.3542 172 50.8489 172H89.495C94.9897 172 99.4441 167.546 99.4441 162.051C99.4441 156.556 94.9897 152.102 89.495 152.102H50.8489C45.3542 152.102 40.8998 156.556 40.8998 162.051ZM33.368 116.102C33.368 129.356 44.1132 140.102 57.368 140.102H82.9759C96.2307 140.102 106.976 129.356 106.976 116.102V112.305C106.976 99.0501 96.2307 88.3049 82.9759 88.3049H57.368C44.1132 88.3049 33.368 99.0501 33.368 112.305V116.102Z" fill="url(#paint0_linear_4_161)"/>
</g>
<g filter="url(#filter1_d_4_161)">
<path d="M142.808 81.767L151.005 76.3438C153.768 74.5153 157.491 75.2734 159.32 78.0371C161.148 80.8008 160.39 84.5235 157.626 86.352L149.43 91.7752C146.666 93.6038 142.943 92.8457 141.115 90.082C139.286 87.3183 140.044 83.5956 142.808 81.767Z" fill="url(#paint1_linear_4_161)"/>
</g>
<g filter="url(#filter2_d_4_161)">
<path d="M99.4452 32.2128V17.7605C99.4452 14.4468 102.131 11.7606 105.445 11.7606C108.759 11.7606 111.445 14.4468 111.445 17.7605V32.2128C111.445 35.5265 108.759 38.2127 105.445 38.2127C102.131 38.2127 99.4452 35.5264 99.4452 32.2128Z" fill="url(#paint2_linear_4_161)"/>
</g>
<g filter="url(#filter3_d_4_161)">
<path d="M52.4134 32.2128V17.7605C52.4134 14.4468 55.0996 11.7606 58.4133 11.7606C61.727 11.7606 64.4133 14.4468 64.4133 17.7605V32.2128C64.4133 35.5265 61.727 38.2127 58.4133 38.2127C55.0996 38.2127 52.4134 35.5264 52.4134 32.2128Z" fill="url(#paint3_linear_4_161)"/>
</g>
<g filter="url(#filter4_d_4_161)">
<path d="M75.9295 26.0401V5.99994C75.9295 2.68627 78.6158 0 81.9294 0C85.2431 0 87.9294 2.68626 87.9294 5.99994V26.0401C87.9294 29.3538 85.2431 32.0401 81.9294 32.0401C78.6158 32.0401 75.9295 29.3538 75.9295 26.0401Z" fill="url(#paint4_linear_4_161)"/>
</g>
<g filter="url(#filter5_d_4_161)">
<path d="M28.9013 38.1464V30.2161C28.9013 26.9024 31.5876 24.2161 34.9013 24.2161C38.215 24.2161 40.9012 26.9024 40.9012 30.2161V38.1464C40.9012 41.4601 38.215 44.1463 34.9013 44.1463C31.5876 44.1463 28.9013 41.4601 28.9013 38.1464Z" fill="url(#paint5_linear_4_161)"/>
</g>
<g filter="url(#filter6_d_4_161)">
<path d="M54.405 166.167C52.1325 166.167 50.2902 164.324 50.2902 162.052C50.2902 159.779 52.1325 157.937 54.405 157.937C56.6776 157.937 58.5199 159.779 58.5199 162.052C58.5199 164.324 56.6776 166.167 54.405 166.167Z" fill="url(#paint6_linear_4_161)"/>
</g>
</g>
<defs>
<filter id="filter0_d_4_161" x="1.36737" y="24.3842" width="150.55" height="179.616" filterUnits="userSpaceOnUse" color-interpolation-filters="sRGB">
<feFlood flood-opacity="0" result="BackgroundImageFix"/>
<feColorMatrix in="SourceAlpha" type="matrix" values="0 0 0 0 0 0 0 0 0 0 0 0 0 0 0 0 0 0 127 0" result="hardAlpha"/>
<feOffset/>
<feGaussianBlur stdDeviation="10"/>
<feComposite in2="hardAlpha" operator="out"/>
<feColorMatrix type="matrix" values="0 0 0 0 0.363281 0 0 0 0 1 0 0 0 0 0.770781 0 0 0 0.21 0"/>
<feBlend mode="normal" in2="BackgroundImageFix" result="effect1_dropShadow_4_161"/>
<feBlend mode="normal" in="SourceGraphic" in2="effect1_dropShadow_4_161" result="shape"/>
</filter>
<filter id="filter1_d_4_161" x="120.118" y="55.347" width="60.1985" height="57.425" filterUnits="userSpaceOnUse" color-interpolation-filters="sRGB">
<feFlood flood-opacity="0" result="BackgroundImageFix"/>
<feColorMatrix in="SourceAlpha" type="matrix" values="0 0 0 0 0 0 0 0 0 0 0 0 0 0 0 0 0 0 127 0" result="hardAlpha"/>
<feOffset/>
<feGaussianBlur stdDeviation="10"/>
<feComposite in2="hardAlpha" operator="out"/>
<feColorMatrix type="matrix" values="0 0 0 0 0.363281 0 0 0 0 1 0 0 0 0 0.770781 0 0 0 0.21 0"/>
<feBlend mode="normal" in2="BackgroundImageFix" result="effect1_dropShadow_4_161"/>
<feBlend mode="normal" in="SourceGraphic" in2="effect1_dropShadow_4_161" result="shape"/>
</filter>
<filter id="filter2_d_4_161" x="79.4452" y="-8.23944" width="51.9999" height="66.4521" filterUnits="userSpaceOnUse" color-interpolation-filters="sRGB">
<feFlood flood-opacity="0" result="BackgroundImageFix"/>
<feColorMatrix in="SourceAlpha" type="matrix" values="0 0 0 0 0 0 0 0 0 0 0 0 0 0 0 0 0 0 127 0" result="hardAlpha"/>
<feOffset/>
<feGaussianBlur stdDeviation="10"/>
<feComposite in2="hardAlpha" operator="out"/>
<feColorMatrix type="matrix" values="0 0 0 0 0.363281 0 0 0 0 1 0 0 0 0 0.770781 0 0 0 0.21 0"/>
<feBlend mode="normal" in2="BackgroundImageFix" result="effect1_dropShadow_4_161"/>
<feBlend mode="normal" in="SourceGraphic" in2="effect1_dropShadow_4_161" result="shape"/>
</filter>
<filter id="filter3_d_4_161" x="32.4134" y="-8.23944" width="51.9999" height="66.4521" filterUnits="userSpaceOnUse" color-interpolation-filters="sRGB">
<feFlood flood-opacity="0" result="BackgroundImageFix"/>
<feColorMatrix in="SourceAlpha" type="matrix" values="0 0 0 0 0 0 0 0 0 0 0 0 0 0 0 0 0 0 127 0" result="hardAlpha"/>
<feOffset/>
<feGaussianBlur stdDeviation="10"/>
<feComposite in2="hardAlpha" operator="out"/>
<feColorMatrix type="matrix" values="0 0 0 0 0.363281 0 0 0 0 1 0 0 0 0 0.770781 0 0 0 0.21 0"/>
<feBlend mode="normal" in2="BackgroundImageFix" result="effect1_dropShadow_4_161"/>
<feBlend mode="normal" in="SourceGraphic" in2="effect1_dropShadow_4_161" result="shape"/>
</filter>
<filter id="filter4_d_4_161" x="55.9295" y="-20" width="51.9999" height="72.0401" filterUnits="userSpaceOnUse" color-interpolation-filters="sRGB">
<feFlood flood-opacity="0" result="BackgroundImageFix"/>
<feColorMatrix in="SourceAlpha" type="matrix" values="0 0 0 0 0 0 0 0 0 0 0 0 0 0 0 0 0 0 127 0" result="hardAlpha"/>
<feOffset/>
<feGaussianBlur stdDeviation="10"/>
<feComposite in2="hardAlpha" operator="out"/>
<feColorMatrix type="matrix" values="0 0 0 0 0.363281 0 0 0 0 1 0 0 0 0 0.770781 0 0 0 0.21 0"/>
<feBlend mode="normal" in2="BackgroundImageFix" result="effect1_dropShadow_4_161"/>
<feBlend mode="normal" in="SourceGraphic" in2="effect1_dropShadow_4_161" result="shape"/>
</filter>
<filter id="filter5_d_4_161" x="8.90137" y="4.21613" width="51.9999" height="59.9302" filterUnits="userSpaceOnUse" color-interpolation-filters="sRGB">
<feFlood flood-opacity="0" result="BackgroundImageFix"/>
<feColorMatrix in="SourceAlpha" type="matrix" values="0 0 0 0 0 0 0 0 0 0 0 0 0 0 0 0 0 0 127 0" result="hardAlpha"/>
<feOffset/>
<feGaussianBlur stdDeviation="10"/>
<feComposite in2="hardAlpha" operator="out"/>
<feColorMatrix type="matrix" values="0 0 0 0 0.363281 0 0 0 0 1 0 0 0 0 0.770781 0 0 0 0.21 0"/>
<feBlend mode="normal" in2="BackgroundImageFix" result="effect1_dropShadow_4_161"/>
<feBlend mode="normal" in="SourceGraphic" in2="effect1_dropShadow_4_161" result="shape"/>
</filter>
<filter id="filter6_d_4_161" x="30.2902" y="137.937" width="48.2297" height="48.2297" filterUnits="userSpaceOnUse" color-interpolation-filters="sRGB">
<feFlood flood-opacity="0" result="BackgroundImageFix"/>
<feColorMatrix in="SourceAlpha" type="matrix" values="0 0 0 0 0 0 0 0 0 0 0 0 0 0 0 0 0 0 127 0" result="hardAlpha"/>
<feOffset/>
<feGaussianBlur stdDeviation="10"/>
<feComposite in2="hardAlpha" operator="out"/>
<feColorMatrix type="matrix" values="0 0 0 0 0.363281 0 0 0 0 1 0 0 0 0 0.770781 0 0 0 0.21 0"/>
<feBlend mode="normal" in2="BackgroundImageFix" result="effect1_dropShadow_4_161"/>
<feBlend mode="normal" in="SourceGraphic" in2="effect1_dropShadow_4_161" result="shape"/>
</filter>
<linearGradient id="paint0_linear_4_161" x1="134.231" y1="114.192" x2="21.3674" y2="114.192" gradientUnits="userSpaceOnUse">
<stop stop-color="#1ED6FF"/>
<stop offset="1" stop-color="#28FFE5"/>
</linearGradient>
<linearGradient id="paint1_linear_4_161" x1="153.528" y1="89.0636" x2="146.906" y2="79.0554" gradientUnits="userSpaceOnUse">
<stop stop-color="#1ED6FF"/>
<stop offset="1" stop-color="#28FFE5"/>
</linearGradient>
<linearGradient id="paint2_linear_4_161" x1="111.445" y1="24.9866" x2="99.4452" y2="24.9866" gradientUnits="userSpaceOnUse">
<stop stop-color="#1ED6FF"/>
<stop offset="1" stop-color="#28FFE5"/>
</linearGradient>
<linearGradient id="paint3_linear_4_161" x1="64.4133" y1="24.9866" x2="52.4134" y2="24.9866" gradientUnits="userSpaceOnUse">
<stop stop-color="#1ED6FF"/>
<stop offset="1" stop-color="#28FFE5"/>
</linearGradient>
<linearGradient id="paint4_linear_4_161" x1="87.9294" y1="16.02" x2="75.9295" y2="16.02" gradientUnits="userSpaceOnUse">
<stop stop-color="#1ED6FF"/>
<stop offset="1" stop-color="#28FFE5"/>
</linearGradient>
<linearGradient id="paint5_linear_4_161" x1="40.9012" y1="34.1812" x2="28.9013" y2="34.1812" gradientUnits="userSpaceOnUse">
<stop stop-color="#1ED6FF"/>
<stop offset="1" stop-color="#28FFE5"/>
</linearGradient>
<linearGradient id="paint6_linear_4_161" x1="58.5199" y1="162.052" x2="50.2902" y2="162.052" gradientUnits="userSpaceOnUse">
<stop stop-color="#1ED6FF"/>
<stop offset="1" stop-color="#28FFE5"/>
</linearGradient>
<clipPath id="clip0_4_161">
<rect width="184" height="184" fill="white" transform="matrix(-1 0 0 1 184 0)"/>
</clipPath>
</defs>
</svg>
