<svg width="1555" height="635" viewBox="0 0 1555 635" fill="none" xmlns="http://www.w3.org/2000/svg">
<path d="M436.281 288V-1.14441e-05H478.681L620.481 214V-1.14441e-05H662.881V288H620.481L478.681 73.8V288H436.281ZM814.503 294C793.036 294 774.17 289.333 757.903 280C741.77 270.533 729.17 257.4 720.103 240.6C711.17 223.667 706.703 204.067 706.703 181.8C706.703 158.2 711.103 137.733 719.903 120.4C728.836 103.067 741.236 89.6667 757.103 80.2C772.97 70.7333 791.436 66 812.503 66C834.503 66 853.236 71.1333 868.703 81.4C884.17 91.5333 895.703 106 903.303 124.8C911.036 143.6 914.103 165.933 912.503 191.8H870.703V176.6C870.436 151.533 865.636 133 856.303 121C847.103 109 833.036 103 814.103 103C793.17 103 777.436 109.6 766.903 122.8C756.37 136 751.103 155.067 751.103 180C751.103 203.733 756.37 222.133 766.903 235.2C777.436 248.133 792.636 254.6 812.503 254.6C825.57 254.6 836.836 251.667 846.303 245.8C855.903 239.8 863.37 231.267 868.703 220.2L909.703 233.2C901.303 252.533 888.57 267.533 871.503 278.2C854.436 288.733 835.436 294 814.503 294ZM737.503 191.8V159.2H891.703V191.8H737.503ZM1038.78 293.8C1023.84 293.8 1011.31 291.4 1001.18 286.6C991.042 281.8 982.775 275.533 976.375 267.8C970.108 259.933 965.308 251.4 961.975 242.2C958.642 233 956.375 224 955.175 215.2C953.975 206.4 953.375 198.667 953.375 192V72H995.775V178.2C995.775 186.6 996.442 195.267 997.775 204.2C999.242 213 1001.91 221.2 1005.78 228.8C1009.78 236.4 1015.31 242.533 1022.38 247.2C1029.58 251.867 1038.91 254.2 1050.38 254.2C1057.84 254.2 1064.91 253 1071.58 250.6C1078.24 248.067 1084.04 244.067 1088.98 238.6C1094.04 233.133 1097.98 225.933 1100.78 217C1103.71 208.067 1105.18 197.2 1105.18 184.4L1131.18 194.2C1131.18 213.8 1127.51 231.133 1120.18 246.2C1112.84 261.133 1102.31 272.8 1088.58 281.2C1074.84 289.6 1058.24 293.8 1038.78 293.8ZM1110.18 288V225.6H1105.18V72H1147.38V288H1110.18ZM1203.47 288V72H1240.67V124.4L1235.47 117.6C1238.14 110.667 1241.6 104.333 1245.87 98.6C1250.14 92.7333 1255.07 87.9333 1260.67 84.2C1266.14 80.2 1272.2 77.1333 1278.87 75C1285.67 72.7333 1292.6 71.4 1299.67 71C1306.74 70.4667 1313.54 70.8 1320.07 72V111.2C1313 109.333 1305.14 108.8 1296.47 109.6C1287.94 110.4 1280.07 113.133 1272.87 117.8C1266.07 122.2 1260.67 127.533 1256.67 133.8C1252.8 140.067 1250 147.067 1248.27 154.8C1246.54 162.4 1245.67 170.467 1245.67 179V288H1203.47ZM1448.05 294C1426.45 294 1407.72 289.133 1391.85 279.4C1375.98 269.667 1363.72 256.267 1355.05 239.2C1346.52 222 1342.25 202.2 1342.25 179.8C1342.25 157.267 1346.65 137.467 1355.45 120.4C1364.25 103.2 1376.58 89.8667 1392.45 80.4C1408.32 70.8 1426.85 66 1448.05 66C1469.65 66 1488.38 70.8667 1504.25 80.6C1520.12 90.3333 1532.38 103.733 1541.05 120.8C1549.72 137.867 1554.05 157.533 1554.05 179.8C1554.05 202.333 1549.65 222.2 1540.85 239.4C1532.18 256.467 1519.92 269.867 1504.05 279.6C1488.18 289.2 1469.52 294 1448.05 294ZM1448.05 254.6C1468.72 254.6 1484.12 247.667 1494.25 233.8C1504.52 219.8 1509.65 201.8 1509.65 179.8C1509.65 157.267 1504.45 139.267 1494.05 125.8C1483.78 112.2 1468.45 105.4 1448.05 105.4C1434.05 105.4 1422.52 108.6 1413.45 115C1404.38 121.267 1397.65 130 1393.25 141.2C1388.85 152.267 1386.65 165.133 1386.65 179.8C1386.65 202.467 1391.85 220.6 1402.25 234.2C1412.65 247.8 1427.92 254.6 1448.05 254.6ZM118.025 600C97.3583 600 78.6917 596.467 62.025 589.4C45.4917 582.2 31.825 572 21.025 558.8C10.3583 545.467 3.425 529.667 0.225001 511.4L43.825 504.8C48.225 522.4 57.425 536.133 71.425 546C85.425 555.733 101.758 560.6 120.425 560.6C132.025 560.6 142.692 558.8 152.425 555.2C162.158 551.467 169.958 546.2 175.825 539.4C181.825 532.467 184.825 524.2 184.825 514.6C184.825 509.4 183.892 504.8 182.025 500.8C180.292 496.8 177.825 493.333 174.625 490.4C171.558 487.333 167.758 484.733 163.225 482.6C158.825 480.333 153.958 478.4 148.625 476.8L74.825 455C67.625 452.867 60.2917 450.133 52.825 446.8C45.3583 443.333 38.4917 438.867 32.225 433.4C26.0917 427.8 21.0917 420.933 17.225 412.8C13.3583 404.533 11.425 394.533 11.425 382.8C11.425 365.067 15.9583 350.067 25.025 337.8C34.225 325.4 46.625 316.067 62.225 309.8C77.825 303.4 95.2917 300.2 114.625 300.2C134.092 300.467 151.492 303.933 166.825 310.6C182.292 317.267 195.092 326.867 205.225 339.4C215.492 351.8 222.558 366.867 226.425 384.6L181.625 392.2C179.625 381.4 175.358 372.133 168.825 364.4C162.292 356.533 154.292 350.533 144.825 346.4C135.358 342.133 125.092 339.933 114.025 339.8C103.358 339.533 93.5583 341.133 84.625 344.6C75.825 348.067 68.7583 352.933 63.425 359.2C58.225 365.467 55.625 372.667 55.625 380.8C55.625 388.8 57.9583 395.267 62.625 400.2C67.2917 405.133 73.025 409.067 79.825 412C86.7583 414.8 93.625 417.133 100.425 419L153.625 434C160.292 435.867 167.825 438.4 176.225 441.6C184.758 444.667 192.958 449 200.825 454.6C208.825 460.2 215.425 467.667 220.625 477C225.825 486.2 228.425 497.8 228.425 511.8C228.425 526.333 225.492 539.133 219.625 550.2C213.758 561.133 205.692 570.333 195.425 577.8C185.292 585.133 173.558 590.667 160.225 594.4C146.892 598.133 132.825 600 118.025 600ZM296.341 690L338.141 576.2L338.741 609.8L244.541 378H288.141L358.541 557H345.741L412.941 378H455.341L336.141 690H296.341ZM638.272 594V487.8C638.272 479.4 637.539 470.8 636.072 462C634.739 453.067 632.072 444.8 628.072 437.2C624.205 429.6 618.672 423.467 611.472 418.8C604.405 414.133 595.139 411.8 583.672 411.8C576.205 411.8 569.139 413.067 562.472 415.6C555.805 418 549.939 421.933 544.872 427.4C539.939 432.867 536.005 440.067 533.072 449C530.272 457.933 528.872 468.8 528.872 481.6L502.872 471.8C502.872 452.2 506.539 434.933 513.872 420C521.205 404.933 531.739 393.2 545.472 384.8C559.205 376.4 575.805 372.2 595.272 372.2C610.205 372.2 622.739 374.6 632.872 379.4C643.005 384.2 651.205 390.533 657.472 398.4C663.872 406.133 668.739 414.6 672.072 423.8C675.405 433 677.672 442 678.872 450.8C680.072 459.6 680.672 467.333 680.672 474V594H638.272ZM486.472 594V378H523.872V440.4H528.872V594H486.472ZM822.431 600C800.298 600 781.498 595.067 766.031 585.2C750.565 575.333 738.698 561.8 730.431 544.6C722.298 527.4 718.165 507.867 718.031 486C718.165 463.733 722.431 444.067 730.831 427C739.231 409.8 751.231 396.333 766.831 386.6C782.431 376.867 801.165 372 823.031 372C846.631 372 866.765 377.867 883.431 389.6C900.231 401.333 911.298 417.4 916.631 437.8L875.031 449.8C870.898 437.667 864.098 428.267 854.631 421.6C845.298 414.8 834.565 411.4 822.431 411.4C808.698 411.4 797.431 414.667 788.631 421.2C779.831 427.6 773.298 436.4 769.031 447.6C764.765 458.8 762.565 471.6 762.431 486C762.565 508.267 767.631 526.267 777.631 540C787.765 553.733 802.698 560.6 822.431 560.6C835.898 560.6 846.765 557.533 855.031 551.4C863.431 545.133 869.831 536.2 874.231 524.6L916.631 534.6C909.565 555.667 897.898 571.867 881.631 583.2C865.365 594.4 845.631 600 822.431 600ZM1108.98 594V487.8C1108.98 479.4 1108.24 470.8 1106.78 462C1105.44 453.067 1102.78 444.8 1098.78 437.2C1094.91 429.6 1089.38 423.467 1082.18 418.8C1075.11 414.133 1065.84 411.8 1054.38 411.8C1046.91 411.8 1039.84 413.067 1033.18 415.6C1026.51 418 1020.64 421.933 1015.58 427.4C1010.64 432.867 1006.71 440.067 1003.78 449C1000.98 457.933 999.575 468.8 999.575 481.6L973.575 471.8C973.575 452.2 977.242 434.933 984.575 420C991.908 404.933 1002.44 393.2 1016.18 384.8C1029.91 376.4 1046.51 372.2 1065.98 372.2C1080.91 372.2 1093.44 374.6 1103.58 379.4C1113.71 384.2 1121.91 390.533 1128.18 398.4C1134.58 406.133 1139.44 414.6 1142.78 423.8C1146.11 433 1148.38 442 1149.58 450.8C1150.78 459.6 1151.38 467.333 1151.38 474V594H1108.98ZM957.175 594V306H994.575V461.4H999.575V594H957.175ZM1203.47 594V378H1240.67V430.4L1235.47 423.6C1238.14 416.667 1241.6 410.333 1245.87 404.6C1250.14 398.733 1255.07 393.933 1260.67 390.2C1266.14 386.2 1272.2 383.133 1278.87 381C1285.67 378.733 1292.6 377.4 1299.67 377C1306.74 376.467 1313.54 376.8 1320.07 378V417.2C1313 415.333 1305.14 414.8 1296.47 415.6C1287.94 416.4 1280.07 419.133 1272.87 423.8C1266.07 428.2 1260.67 433.533 1256.67 439.8C1252.8 446.067 1250 453.067 1248.27 460.8C1246.54 468.4 1245.67 476.467 1245.67 485V594H1203.47ZM1448.05 600C1426.45 600 1407.72 595.133 1391.85 585.4C1375.98 575.667 1363.72 562.267 1355.05 545.2C1346.52 528 1342.25 508.2 1342.25 485.8C1342.25 463.267 1346.65 443.467 1355.45 426.4C1364.25 409.2 1376.58 395.867 1392.45 386.4C1408.32 376.8 1426.85 372 1448.05 372C1469.65 372 1488.38 376.867 1504.25 386.6C1520.12 396.333 1532.38 409.733 1541.05 426.8C1549.72 443.867 1554.05 463.533 1554.05 485.8C1554.05 508.333 1549.65 528.2 1540.85 545.4C1532.18 562.467 1519.92 575.867 1504.05 585.6C1488.18 595.2 1469.52 600 1448.05 600ZM1448.05 560.6C1468.72 560.6 1484.12 553.667 1494.25 539.8C1504.52 525.8 1509.65 507.8 1509.65 485.8C1509.65 463.267 1504.45 445.267 1494.05 431.8C1483.78 418.2 1468.45 411.4 1448.05 411.4C1434.05 411.4 1422.52 414.6 1413.45 421C1404.38 427.267 1397.65 436 1393.25 447.2C1388.85 458.267 1386.65 471.133 1386.65 485.8C1386.65 508.467 1391.85 526.6 1402.25 540.2C1412.65 553.8 1427.92 560.6 1448.05 560.6Z" fill="url(#paint0_linear_2_12)" fill-opacity="0.01"/>
<defs>
<linearGradient id="paint0_linear_2_12" x1="-1383" y1="288" x2="1570" y2="288" gradientUnits="userSpaceOnUse">
<stop offset="0.520015" stop-color="white" stop-opacity="0"/>
<stop offset="1" stop-color="white"/>
</linearGradient>
</defs>
</svg>
